<?xml version="1.0" standalone="no"?>
<!DOCTYPE svg PUBLIC "-//W3C//DTD SVG 20010904//EN"
 "http://www.w3.org/TR/2001/REC-SVG-20010904/DTD/svg10.dtd">
<svg version="1.0" xmlns="http://www.w3.org/2000/svg"
 width="500.000000pt" height="300.000000pt" viewBox="0 0 500.000000 100.000000"
 preserveAspectRatio="xMidYMid meet">

<g transform="translate(0.000000,300.000000) scale(0.100000,-0.100000)"
fill="#000000" stroke="none">
<path d="M3730 2960 c-146 -126 -268 -226 -272 -222 -4 4 -25 97 -48 207 -22
110 -42 206 -45 213 -7 20 -53 15 -60 -8 -3 -11 15 -121 40 -245 26 -124 45
-229 43 -234 -2 -5 -117 -107 -255 -225 -253 -217 -277 -243 -235 -264 10 -5
122 4 295 26 153 19 281 32 283 29 3 -3 29 -119 57 -259 l52 -253 28 -3 c17
-2 29 2 33 11 3 9 -17 126 -44 262 -49 246 -49 247 -28 255 11 5 173 27 360
50 186 22 342 43 347 46 5 3 9 13 9 23 0 44 -13 44 -386 -3 -198 -24 -362 -41
-365 -38 -3 4 -18 69 -33 146 -15 76 -30 144 -32 151 -3 8 111 112 285 261
160 136 291 255 291 264 0 21 -20 40 -39 39 -9 0 -135 -104 -281 -229z m-290
-523 c12 -65 21 -119 19 -121 -2 -2 -83 -14 -179 -25 -96 -12 -187 -23 -202
-26 -16 -2 -28 -1 -28 4 0 5 79 78 177 161 126 109 178 148 183 139 4 -8 17
-67 30 -132z"/>
<path d="M1122 3051 c-166 -62 -257 -205 -269 -421 -9 -171 36 -310 132 -406
73 -74 141 -98 270 -98 107 1 172 19 262 73 l43 26 0 192 0 193 -105 0 -105 0
0 -40 0 -39 58 -3 57 -3 3 -128 3 -128 -58 -27 c-51 -24 -70 -27 -158 -27 -92
0 -104 2 -148 28 -95 56 -145 159 -154 314 -12 206 57 351 194 410 25 11 66
16 118 16 77 0 107 -8 221 -59 7 -3 17 11 24 32 11 33 11 39 -6 51 -79 57
-282 81 -382 44z"/>
<path d="M2009 3033 c-6 -16 -82 -217 -169 -448 -87 -231 -162 -428 -165 -437
-6 -16 -1 -18 42 -18 48 0 49 1 62 38 8 20 27 72 43 115 l30 77 217 0 218 0
43 -115 42 -115 49 0 49 0 -11 28 c-6 15 -82 216 -169 447 -87 231 -162 428
-165 438 -6 13 -19 17 -56 17 -45 0 -51 -3 -60 -27z m156 -345 c49 -131 86
-240 83 -243 -3 -3 -86 -4 -185 -3 l-180 3 91 247 c50 136 94 244 97 240 3 -4
46 -114 94 -244z"/>
<path d="M2620 2595 l0 -465 45 0 45 0 0 465 0 465 -45 0 -45 0 0 -465z"/>
</g>
</svg>
