<?xml version="1.0" standalone="no"?>
<!DOCTYPE svg PUBLIC "-//W3C//DTD SVG 20010904//EN"
 "http://www.w3.org/TR/2001/REC-SVG-20010904/DTD/svg10.dtd">
<svg version="1.0" xmlns="http://www.w3.org/2000/svg"
 width="500.000000pt" height="500.000000pt" viewBox="0 0 500.000000 500.000000"
 preserveAspectRatio="xMidYMid meet">

<g transform="translate(0.000000,500.000000) scale(0.100000,-0.100000)"
fill="#000000" stroke="none">
<path d="M3995 3188 c-10 -6 -133 -110 -274 -231 -218 -188 -256 -217 -263
-201 -4 11 -21 91 -38 179 -42 215 -47 232 -69 238 -29 7 -51 -11 -51 -43 0
-25 71 -392 86 -441 3 -11 -73 -83 -256 -239 -351 -301 -351 -298 38 -252 147
18 276 32 288 32 20 0 25 -18 68 -237 26 -131 49 -246 52 -255 9 -32 66 -34
78 -2 3 7 -17 123 -44 256 -26 134 -45 246 -42 250 4 3 160 25 347 47 187 23
347 44 356 47 21 6 29 36 17 58 -13 23 -33 21 -409 -25 -182 -22 -332 -39
-334 -37 -1 2 -15 62 -29 133 -15 72 -30 140 -32 152 -5 18 39 59 275 262 154
132 284 249 289 258 18 36 -18 70 -53 51z m-575 -675 c7 -32 18 -87 25 -123 8
-36 12 -66 10 -69 -6 -5 -388 -52 -392 -47 -5 5 328 295 339 296 4 0 12 -26
18 -57z"/>
<path d="M1182 3069 c-154 -26 -272 -144 -317 -316 -9 -32 -15 -101 -15 -158
0 -169 43 -287 136 -375 84 -79 127 -95 264 -94 123 0 168 12 265 68 l45 27 0
194 0 195 -110 0 -110 0 0 -45 0 -45 60 0 60 0 0 -126 0 -125 -57 -27 c-49
-22 -72 -27 -148 -27 -105 0 -148 17 -208 84 -48 53 -66 89 -83 169 -34 165
-3 328 82 422 55 61 104 83 199 88 77 4 142 -10 237 -52 13 -6 20 0 32 29 9
21 16 39 16 41 0 2 -17 12 -37 22 -94 48 -215 67 -311 51z"/>
<path d="M1845 2608 c-93 -249 -171 -458 -173 -465 -3 -9 11 -13 46 -13 l50 0
40 108 40 107 219 3 220 2 40 -107 40 -108 52 -3 c47 -3 52 -1 47 15 -4 10
-82 218 -174 463 l-168 445 -54 3 -55 3 -170 -453z m318 74 c48 -128 87 -235
87 -237 0 -3 -81 -5 -180 -5 -99 0 -180 3 -180 8 0 19 176 480 181 474 3 -4
45 -112 92 -240z"/>
<path d="M2610 2595 l0 -465 50 0 50 0 0 465 0 465 -50 0 -50 0 0 -465z"/>
</g>
</svg>
