<?xml version="1.0" standalone="no"?>
<!DOCTYPE svg PUBLIC "-//W3C//DTD SVG 20010904//EN"
 "http://www.w3.org/TR/2001/REC-SVG-20010904/DTD/svg10.dtd">
<svg version="1.0" xmlns="http://www.w3.org/2000/svg"
 width="170.000000pt" height="187.000000pt" viewBox="0 0 170.000000 187.000000"
 preserveAspectRatio="xMidYMid meet">

<g transform="translate(0.000000,187.000000) scale(0.100000,-0.100000)"
fill="#000000" stroke="none">
<path d="M598 1545 c-26 -14 -49 -29 -52 -34 -4 -5 16 -65 43 -133 62 -156 76
-197 70 -201 -2 -2 -85 -60 -184 -128 -211 -146 -268 -197 -286 -257 -11 -37
-10 -48 4 -78 9 -19 29 -40 44 -46 18 -8 126 -13 311 -16 279 -4 283 -4 291
-25 5 -12 23 -89 41 -172 18 -82 36 -158 41 -167 12 -22 32 -23 94 -2 l48 17
-7 71 c-3 39 -17 118 -30 176 -13 58 -23 106 -22 107 1 2 107 9 236 17 128 8
237 19 242 24 4 4 5 33 1 63 l-8 54 -110 0 c-61 0 -175 -2 -255 -4 l-145 -5
-52 160 c-29 87 -51 164 -49 170 3 7 67 49 143 95 194 116 223 137 223 160 0
31 -39 99 -57 99 -9 0 -90 -45 -179 -100 -90 -55 -169 -103 -177 -106 -10 -3
-20 9 -31 38 -75 190 -106 249 -130 248 -6 -1 -32 -12 -58 -25z m147 -592 c13
-39 29 -89 33 -111 9 -40 9 -40 -22 -46 -39 -7 -386 -10 -393 -3 -2 3 55 47
129 99 182 128 212 147 220 139 4 -4 19 -39 33 -78z"/>
</g>
</svg>
